<svg width="34" height="34" viewBox="0 0 34 34" fill="none" xmlns="http://www.w3.org/2000/svg">
<path d="M17 20.0741C13.9825 20.0741 11.5175 17.6233 11.5175 14.5916C11.5175 11.56 13.9825 9.12329 17 9.12329C20.0175 9.12329 22.4825 11.5741 22.4825 14.6058C22.4825 17.6375 20.0175 20.0741 17 20.0741ZM17 11.2483C15.1583 11.2483 13.6425 12.75 13.6425 14.6058C13.6425 16.4616 15.1442 17.9633 17 17.9633C18.8558 17.9633 20.3575 16.4616 20.3575 14.6058C20.3575 12.75 18.8417 11.2483 17 11.2483Z" fill="#6E6E6E"/>
<path d="M17 32.2434C14.9033 32.2434 12.7925 31.45 11.1492 29.8775C6.97001 25.8542 2.35167 19.4367 4.09417 11.8009C5.66667 4.87337 11.7158 1.77087 17 1.77087C17 1.77087 17 1.77087 17.0142 1.77087C22.2983 1.77087 28.3475 4.87337 29.92 11.815C31.6483 19.4509 27.03 25.8542 22.8508 29.8775C21.2075 31.45 19.0967 32.2434 17 32.2434ZM17 3.89587C12.8775 3.89587 7.57917 6.09171 6.17667 12.2684C4.64667 18.9409 8.84001 24.6925 12.6367 28.3334C15.0875 30.6992 18.9267 30.6992 21.3775 28.3334C25.16 24.6925 29.3533 18.9409 27.8517 12.2684C26.435 6.09171 21.1225 3.89587 17 3.89587Z" fill="#6E6E6E"/>
</svg>
